Coordinates
version=1
nRows=16
nColumns=42
inDegrees=yes

Units are S.I. units (second, meters, Newtons, ...)
If the header above contains a line with 'inDegrees', this indicates whether rotational values are in degrees (yes) or radians (no).

endheader
time	pelvis_tilt	pelvis_list	pelvis_rotation	pelvis_tx	pelvis_ty	pelvis_tz	hip_flexion_r	hip_adduction_r	hip_rotation_r	knee_angle_r	knee_adduction_r	knee_angle_r_beta	ankle_angle_r	subtalar_angle_r	mtp_angle_r	hip_flexion_l	hip_adduction_l	hip_rotation_l	knee_angle_l	knee_adduction_l	knee_angle_l_beta	ankle_angle_l	subtalar_angle_l	mtp_angle_l	lumbar_extension	lumbar_bending	lumbar_rotation	arm_flex_r	arm_add_r	arm_rot_r	elbow_flex_r	pro_sup_r	wrist_flex_r	wrist_dev_r	arm_flex_l	arm_add_l	arm_rot_l	elbow_flex_l	pro_sup_l	wrist_flex_l	wrist_dev_l
      1.24000000	     10.97558575	      7.48392623	     -1.60824830	     -0.12597269	      0.90967951	     -0.27590590	     26.36295813	     -5.70405120	    -30.73936132	     30.15019459	    -12.51496720	      0.52622017	     17.86938951	     27.28025472	     -7.62003703	    -15.54614998	     17.82391063	    -27.09574737	     17.33625352	    -12.14610209	      0.30257470	     28.61776269	     28.85558097	     -7.62003703	    -40.86750203	     -8.73118432	     -3.15478208	      2.22995674	     -8.13966334	     10.99265974	     37.84086054	     90.00000001	      0.00000000	      0.00000000	     -6.10330572	    -13.69116699	     15.84370269	     46.17383741	     90.00000001	      0.00000000	      0.00000000
      1.25000000	     10.93837859	      7.47422876	     -1.44131307	     -0.11822395	      0.90910190	     -0.27582024	     26.08649484	     -5.63825021	    -30.75787254	     30.39018193	    -12.68119742	      0.53040874	     17.61180783	     27.13870772	     -7.61925370	    -16.01253741	     17.75353761	    -26.76595176	     17.52445244	    -12.27288298	      0.30585939	     28.56275221	     28.76676081	     -7.61925370	    -40.69531683	     -8.48669518	     -3.13292451	      2.08675288	     -8.16573446	     10.98025717	     37.72745407	     90.00000001	      0.00000000	      0.00000000	     -6.20987602	    -13.62152917	     15.85930962	     46.07112724	     90.00000001	      0.00000000	      0.00000000
      1.26000000	     11.00649520	      7.43763319	     -1.20584172	     -0.11030009	      0.90897284	     -0.27575552	     25.63299946	     -5.60365262	    -30.99568620	     30.62711623	    -12.88658501	      0.53454402	     16.71271405	     26.57966592	     -7.61685347	    -16.73488050	     17.64521677	    -25.95051781	     17.54806629	    -12.23906149	      0.30627153	     28.44587514	     28.41163676	     -7.61685347	    -40.62686947	     -8.16079879	     -3.17513136	      2.00207387	     -8.14717254	     10.96983606	     37.39178197	     90.00000001	      0.00000000	      0.00000000	     -6.21615295	    -13.51196441	     15.85825675	     45.69252493	     90.00000001	      0.00000000	      0.00000000
      1.27000000	     10.96182397	      7.39160017	     -1.02961416	     -0.10232640	      0.90867238	     -0.27560905	     25.35023560	     -5.48970685	    -30.80804662	     30.97514035	    -13.03544325	      0.54061819	     16.50161579	     26.43156753	     -7.61623684	    -17.13980301	     17.49562428	    -25.61573539	     17.83085393	    -12.40179512	      0.31120711	     28.33091952	     28.32893085	     -7.61623684	    -40.43038809	     -7.86506987	     -3.14194177	      1.81467087	     -8.17322480	     10.96157834	     37.29700824	     90.00000001	      0.00000000	      0.00000000	     -6.35550558	    -13.43298558	     15.86455745	     45.62304973	     90.00000001	      0.00000000	      0.00000000
      1.28000000	     11.09142723	      7.30876074	     -0.78685132	     -0.09423666	      0.90897539	     -0.27542055	     24.81882608	     -5.48257872	    -30.86349980	     31.39495215	    -13.05204996	      0.54794528	     15.61632161	     25.70117370	     -7.61477046	    -17.86039617	     17.20503858	    -24.78659143	     18.06860588	    -12.25743710	      0.31535666	     28.08364428	     28.07812216	     -7.61477046	    -40.44049437	     -7.50098153	     -3.16045966	      1.75205863	     -8.18487452	     10.97168678	     36.99579881	     90.00000001	      0.00000000	      0.00000000	     -6.34671638	    -13.30220383	     15.83062280	     45.30445644	     90.00000001	      0.00000000	      0.00000000
      1.29000000	     11.06890657	      7.21553528	     -0.61593726	     -0.08606218	      0.90903617	     -0.27519726	     24.51510013	     -5.28881133	    -30.64846960	     31.77341301	    -13.29364349	      0.55455067	     15.46731236	     25.63729613	     -7.61455582	    -18.27179429	     17.01360636	    -24.47428356	     18.32618628	    -12.51497988	      0.31985229	     27.97907253	     28.07789548	     -7.61455582	    -40.26095178	     -7.15100299	     -3.13011291	      1.57541724	     -8.21425037	     10.97081868	     36.88436041	     90.00000001	      0.00000000	      0.00000000	     -6.51892228	    -13.21051486	     15.84630067	     45.22014160	     90.00000001	      0.00000000	      0.00000000
      1.30000000	     11.06179859	      7.13088859	     -0.44373063	     -0.07816705	      0.90965045	     -0.27491392	     24.06394383	     -5.03548548	    -29.02600588	     32.30531791	    -12.71740736	      0.56383416	     14.30016061	     22.12368543	     -7.60728312	    -18.87303742	     16.91246433	    -22.45256474	     18.62845691	    -12.22876709	      0.32512791	     27.12248438	     25.67552975	     -7.60728312	    -40.16904918	     -6.81317534	     -3.09001361	      1.75711177	     -8.21906414	     10.99637357	     36.22508683	     90.00000001	      0.00000000	      0.00000000	     -6.34821194	    -12.83420674	     15.39656664	     44.42441878	     90.00000001	      0.00000000	      0.00000000
      1.31000000	     11.13656607	      7.00978458	     -0.25496427	     -0.06997410	      0.91028628	     -0.27452081	     23.62710435	     -4.91329363	    -28.79860846	     32.82223076	    -12.72838559	      0.57285599	     14.11706894	     21.84245479	     -7.60607478	    -19.31400795	     16.49354744	    -21.92671274	     19.18048058	    -12.15707896	      0.33476254	     26.79690101	     25.62219335	     -7.60607478	    -40.13851390	     -6.43718549	     -3.03331910	      1.64887043	     -8.28071874	     10.98142290	     36.16537845	     90.00000001	      0.00000000	      0.00000000	     -6.45442823	    -12.72273534	     15.37473484	     44.38568206	     90.00000001	      0.00000000	      0.00000000
      1.32000000	     11.13991513	      6.88486668	     -0.12488694	     -0.06167240	      0.91090387	     -0.27404727	     23.28367664	     -4.68320930	    -28.49766202	     33.28498370	    -12.89041282	      0.58093256	     14.03959239	     21.73736849	     -7.60556859	    -19.65443166	     16.18976150	    -21.53242269	     19.62837011	    -12.33166049	      0.34257969	     26.57828689	     25.59482423	     -7.60556859	    -39.98483211	     -6.10359214	     -2.98694647	      1.49566959	     -8.32103753	     10.97483233	     36.11081446	     90.00000001	      0.00000000	      0.00000000	     -6.62642713	    -12.62246274	     15.38170693	     44.34352847	     90.00000001	      0.00000000	      0.00000000
      1.33000000	     11.23916535	      6.74196774	      0.02382317	     -0.05369769	      0.91213979	     -0.27348670	     22.63535773	     -4.36341779	    -26.84282962	     33.79256754	    -12.19296580	      0.58979157	     13.70442094	     18.47389195	     -7.59858697	    -20.11826699	     15.74633655	    -20.03796565	     20.37265102	    -11.84655387	      0.35556984	     25.55643987	     23.79222389	     -7.59858697	    -40.03188621	     -5.73410731	     -2.93494563	      1.68392038	     -8.39850284	     11.14438332	     35.65161100	     90.00000001	      0.00000000	      0.00000000	     -6.48910070	    -12.31176057	     14.98441276	     43.81231622	     90.00000001	      0.00000000	      0.00000000
      1.34000000	     11.29140955	      6.61465784	      0.11916444	     -0.04543604	      0.91310443	     -0.27287738	     22.22655407	     -4.13504704	    -26.55421584	     34.29983151	    -12.30258868	      0.59864499	     13.72550722	     18.42395987	     -7.59806709	    -20.40654853	     15.37479692	    -19.60906880	     21.00057050	    -11.91808585	      0.36652910	     25.26809611	     23.80815777	     -7.59806709	    -39.96232633	     -5.41433537	     -2.84691278	      1.56290203	     -8.46011347	     11.13129342	     35.62100507	     90.00000001	      0.00000000	      0.00000000	     -6.66043034	    -12.18732694	     14.99700347	     43.79335410	     90.00000001	      0.00000000	      0.00000000
      1.35000000	     11.40143419	      6.46824855	      0.25897921	     -0.03745044	      0.91454754	     -0.27213513	     21.50787994	     -3.83925273	    -25.27625633	     34.66448481	    -11.67477179	      0.60500939	     14.06313909	     16.11871147	     -7.59165808	    -20.60615479	     14.69851709	    -18.68062046	     22.20187958	    -11.29596119	      0.38749590	     24.18064612	     22.49880985	     -7.59165808	    -40.02841014	     -5.07139080	     -2.80683976	      1.70783516	     -8.55003715	     11.29167584	     35.40792003	     90.00000001	      0.00000000	      0.00000000	     -6.56173026	    -11.98323655	     14.71385344	     43.56526040	     90.00000001	      0.00000000	      0.00000000
      1.36000000	     11.49367023	      6.35617476	      0.34305798	     -0.02930986	      0.91581187	     -0.27142271	     20.98236281	     -3.65121138	    -25.02099232	     35.12737284	    -11.67058088	      0.61308831	     14.19624488	     16.03201247	     -7.59100124	    -20.79428326	     14.21440134	    -18.22828479	     23.09610533	    -11.13307070	      0.40310308	     23.70691453	     22.49878901	     -7.59100124	    -40.03354118	     -4.78096121	     -2.71547417	      1.67967966	     -8.65390840	     11.27389381	     35.40167366	     90.00000001	      0.00000000	      0.00000000	     -6.65218634	    -11.85009201	     14.72126248	     43.56655186	     90.00000001	      0.00000000	      0.00000000
      1.37000000	     11.60510991	      6.18073584	      0.49581414	     -0.02129630	      0.91730989	     -0.27053893	     20.22299175	     -3.33395016	    -24.62205946	     35.22469018	    -11.46068370	      0.61478682	     14.92466173	     15.35969323	     -7.58919106	    -20.74881385	     13.33978231	    -17.96234796	     24.61070972	    -10.56254506	      0.42953792	     22.52744380	     21.91934003	     -7.58919106	    -40.09134825	     -4.43581356	     -2.67693052	      1.75829686	     -8.70355718	     11.32724163	     35.36587978	     90.00000001	      0.00000000	      0.00000000	     -6.64873763	    -11.76484769	     14.66105051	     43.51953246	     90.00000001	      0.00000000	      0.00000000
      1.38000000	     11.73202383	      6.07710941	      0.59331756	     -0.01332312	      0.91879852	     -0.26974752	     19.51651202	     -3.19597454	    -24.42644082	     35.47119701	    -11.25846052	      0.61908918	     15.29843828	     15.08516467	     -7.58846554	    -20.75873303	     12.65533284	    -17.48319888	     25.97680961	    -10.03524727	      0.45338086	     21.63683735	     21.72261457	     -7.58846554	    -40.16954586	     -4.15281324	     -2.61285805	      1.81518795	     -8.78883438	     11.35885347	     35.30799567	     90.00000001	      0.00000000	      0.00000000	     -6.62574132	    -11.65666427	     14.64152942	     43.49503544	     90.00000001	      0.00000000	      0.00000000
      1.39000000	     11.79760996	      5.95696907	      0.67635006	     -0.00547167	      0.92020704	     -0.26883054	     18.82473694	     -2.96312309	    -24.31054017	     35.51741362	    -11.14494876	      0.61989581	     15.80205238	     14.79128581	     -7.58770519	    -20.55678863	     11.92936316	    -17.13187767	     27.53022916	     -9.52022010	      0.48049314	     20.49642462	     21.27012088	     -7.58770519	    -40.18553723	     -3.90504536	     -2.55454304	      1.90442838	     -8.85452608	     11.40368326	     35.27557314	     90.00000001	      0.00000000	      0.00000000	     -6.62030119	    -11.56736645	     14.61336608	     43.48305273	     90.00000001	      0.00000000	      0.00000000
